# xmcd
#
# Track frame offsets: 
#        150
#        18893
#        54882
#        79211
#        100655
#        122209
#        140675
#        160396
#        175530
#
# Disc length: 2634 seconds
#
# Revision: 0
# Processed by: cddbd v1.5.2PL0 Copyright (c) Steve Scherf et al.
# Submitted via: ExactAudioCopyFreeDBPlugin 1.0
#
DISCID=690a4809
DTITLE=Mother's Finest - Mother's Finest
DYEAR=1976
DGENRE=
TTITLE0=Fire
TTITLE1=Give You All The Love (Inside Of Me)
TTITLE2=Nigizz Can't Sang Rock and Roll
TTITLE3=My Baby
TTITLE4=Fly With Me (Feel The Love)
TTITLE5=Dontcha Wanna Love Me
TTITLE6=Rain
TTITLE7=My Baby (Live, Europe 1979)
TTITLE8=Rain (Live, Europe 1979)
EXTD=
EXTT0=
EXTT1=
EXTT2=
EXTT3=
EXTT4=
EXTT5=
EXTT6=
EXTT7=
EXTT8=
PLAYORDER=
